<svg width="82" height="82" viewBox="0 0 82 82" fill="none" xmlns="http://www.w3.org/2000/svg">
<rect width="82" height="82" rx="41" fill="white"/>
<path d="M53.8056 37.1431L35.5625 26.6031C35.041 26.2946 34.4471 26.1296 33.8413 26.125C32.8888 26.125 31.9753 26.5034 31.3019 27.1769C30.6284 27.8503 30.25 28.7638 30.25 29.7163V52.3369C30.2501 52.9689 30.4196 53.5894 30.7407 54.1338C31.0618 54.6782 31.5229 55.1267 32.076 55.4325C32.6292 55.7384 33.2541 55.8905 33.886 55.873C34.5178 55.8555 35.1334 55.6691 35.6688 55.3331L53.9331 43.7944C54.501 43.439 54.9672 42.9425 55.2861 42.3533C55.6051 41.7642 55.766 41.1025 55.7532 40.4326C55.7403 39.7628 55.5542 39.1077 55.2129 38.5312C54.8716 37.9548 54.3867 37.4765 53.8056 37.1431Z" fill="black"/>
</svg>
