<svg width="226" height="62" viewBox="0 0 226 62" fill="none" xmlns="http://www.w3.org/2000/svg">
<path d="M22.6449 42.4698H19.4588L17.4489 37.6024L15.519 42.4698H12.3574L17.3956 29.7529L22.6449 42.4698Z" fill="#939598"/>
<path d="M28.8925 42.4703H25.7064L17.4444 22.45L9.51147 42.4703H6.34985L17.4578 14.6006L28.8925 42.4703Z" fill="#939598"/>
<path d="M35.2914 42.4699H32.0942L17.4423 7.79818L3.15939 42.4699H0L17.4512 0L35.2914 42.4699Z" fill="#939598"/>
<path d="M23.632 14.716H20.3659L17.4422 7.79818L14.5919 14.716H11.4036L17.4511 0L23.632 14.716Z" fill="white"/>
<path d="M45.9542 54.9253L43.0549 49.8662H44.5979L46.6301 53.4254L48.6667 49.8662H50.2097L47.2993 54.9253V58.7721H45.9586V54.9253H45.9542Z" fill="white"/>
<path d="M49.9187 55.924C49.9187 55.1128 50.2077 54.4219 50.788 53.8536C51.3683 53.2853 52.0731 53 52.9047 53C53.7362 53 54.4499 53.2875 55.0347 53.8603C55.6105 54.4331 55.8973 55.1373 55.8973 55.9708C55.8973 56.8044 55.6083 57.5176 55.028 58.0881C54.4455 58.6542 53.7295 58.935 52.8824 58.935C52.0353 58.935 51.3394 58.6475 50.7703 58.0703C50.2033 57.502 49.9187 56.7865 49.9187 55.924ZM51.2416 55.9463C51.2416 56.508 51.3906 56.9515 51.6907 57.2791C51.9975 57.6089 52.4022 57.7761 52.9047 57.7761C53.4072 57.7761 53.8163 57.6134 54.1186 57.2858C54.421 56.9582 54.5722 56.5236 54.5722 55.9775C54.5722 55.4315 54.421 54.9947 54.1186 54.6671C53.8118 54.3372 53.4072 54.1701 52.9047 54.1701C52.4022 54.1701 52.0087 54.335 51.7018 54.6671C51.395 54.9969 51.2416 55.4248 51.2416 55.9486V55.9463Z" fill="white"/>
<path d="M58.5608 53.1533V56.3782C58.5608 57.3098 58.9277 57.7734 59.6592 57.7734C60.3907 57.7734 60.7575 57.3076 60.7575 56.3782V53.1533H62.0515V56.4072C62.0515 56.8574 61.9959 57.2452 61.8848 57.5728C61.778 57.8648 61.5913 58.1278 61.3267 58.3618C60.8887 58.7429 60.3329 58.9323 59.6592 58.9323C58.9855 58.9323 58.4341 58.7429 57.9961 58.3618C57.7271 58.1278 57.5381 57.8648 57.4269 57.5728C57.3202 57.3121 57.2668 56.922 57.2668 56.4072V53.1533H58.5608Z" fill="white"/>
<path d="M71.4561 53.1534H72.7568V58.7719H71.4561V58.1835C70.9225 58.6827 70.3489 58.9323 69.7352 58.9323C68.9593 58.9323 68.319 58.6515 67.8143 58.0899C67.3118 57.5171 67.0605 56.8017 67.0605 55.9437C67.0605 55.0856 67.3118 54.3992 67.8143 53.8376C68.3167 53.2759 68.946 52.9951 69.7019 52.9951C70.3533 52.9951 70.9381 53.2648 71.4561 53.8019V53.1511V53.1534ZM68.3834 55.9459C68.3834 56.4852 68.528 56.9221 68.8148 57.2608C69.1105 57.604 69.4818 57.7734 69.9309 57.7734C70.4112 57.7734 70.798 57.6085 71.0937 57.2764C71.3894 56.9332 71.5362 56.5008 71.5362 55.9726C71.5362 55.4444 71.3894 55.0121 71.0937 54.6689C70.798 54.3346 70.4156 54.1674 69.942 54.1674C69.4973 54.1674 69.126 54.3368 68.8259 54.6756C68.5302 55.0188 68.3834 55.44 68.3834 55.9437V55.9459Z" fill="white"/>
<path d="M74.3889 53.1531H75.6896V53.6724C76.1432 53.2222 76.6523 52.9971 77.2193 52.9971C77.8707 52.9971 78.3799 53.2021 78.7445 53.6144C79.058 53.9643 79.2159 54.5349 79.2159 55.3283V58.7716H77.9152V55.6381C77.9152 55.0853 77.8374 54.702 77.684 54.4925C77.535 54.2786 77.2615 54.1694 76.868 54.1694C76.4389 54.1694 76.1343 54.312 75.952 54.595C75.7763 54.8759 75.6874 55.3639 75.6874 56.0637V58.7716H74.3867V53.1531H74.3889Z" fill="white"/>
<path d="M84.983 49.0305H86.2836V58.7721H84.983V58.1838C84.4738 58.683 83.8958 58.9326 83.251 58.9326C82.4839 58.9326 81.8481 58.6518 81.3411 58.0902C80.8386 57.5174 80.5874 56.802 80.5874 55.9439C80.5874 55.0859 80.8386 54.4061 81.3411 53.8445C81.8392 53.2784 82.4661 52.9976 83.2221 52.9976C83.878 52.9976 84.4649 53.2673 84.983 53.8044V49.0283V49.0305ZM81.9103 55.9462C81.9103 56.4855 82.0548 56.9223 82.3416 57.2611C82.6373 57.6043 83.0086 57.7737 83.4578 57.7737C83.938 57.7737 84.3249 57.6088 84.6206 57.2767C84.9163 56.9335 85.063 56.5011 85.063 55.9729C85.063 55.4447 84.9163 55.0123 84.6206 54.6691C84.3249 54.3348 83.9425 54.1677 83.4689 54.1677C83.0242 54.1677 82.6529 54.3371 82.3528 54.6758C82.057 55.019 81.9103 55.4403 81.9103 55.9439V55.9462Z" fill="white"/>
<path d="M92.847 53.1533V56.3782C92.847 57.3098 93.2138 57.7734 93.9453 57.7734C94.6768 57.7734 95.0436 57.3076 95.0436 56.3782V53.1533H96.3376V56.4072C96.3376 56.8574 96.2821 57.2452 96.1709 57.5728C96.0642 57.8648 95.8774 58.1278 95.6128 58.3618C95.1748 58.7429 94.619 58.9323 93.9453 58.9323C93.2716 58.9323 92.7202 58.7429 92.2822 58.3618C92.0132 58.1278 91.8242 57.8648 91.7131 57.5728C91.6063 57.3121 91.553 56.922 91.553 56.4072V53.1533H92.847Z" fill="white"/>
<path d="M101.231 54.1109L100.162 54.6814C99.993 54.3382 99.784 54.1688 99.535 54.1688C99.4149 54.1688 99.3149 54.2089 99.2304 54.2869C99.1459 54.3649 99.1036 54.4675 99.1036 54.59C99.1036 54.804 99.3526 55.0179 99.8507 55.2297C100.538 55.5261 101 55.798 101.238 56.0476C101.476 56.2972 101.594 56.6337 101.594 57.055C101.594 57.5965 101.394 58.049 100.996 58.4145C100.609 58.7599 100.14 58.9337 99.5928 58.9337C98.6523 58.9337 97.9875 58.4746 97.5962 57.5542L98.7012 57.0416C98.8546 57.3113 98.9725 57.4829 99.0525 57.5542C99.2104 57.7013 99.3971 57.7726 99.6172 57.7726C100.055 57.7726 100.273 57.572 100.273 57.1731C100.273 56.9413 100.104 56.7273 99.7662 56.5268C99.635 56.4621 99.5061 56.3975 99.3749 56.3373C99.2437 56.2749 99.1125 56.2125 98.9769 56.1479C98.6011 55.9629 98.3366 55.7779 98.1832 55.5952C97.9875 55.3612 97.8897 55.0581 97.8897 54.6903C97.8897 54.2022 98.0564 53.7988 98.3899 53.4801C98.7323 53.1614 99.1459 53.001 99.6328 53.001C100.351 53.001 100.882 53.3732 101.231 54.1131V54.1109Z" fill="white"/>
<path d="M102.957 53.789C102.957 53.5772 103.034 53.3922 103.192 53.2362C103.35 53.078 103.537 53 103.757 53C103.977 53 104.164 53.078 104.322 53.2362C104.48 53.3945 104.557 53.5817 104.557 53.8023C104.557 54.023 104.48 54.2146 104.322 54.3729C104.168 54.5267 103.979 54.6047 103.757 54.6047C103.535 54.6047 103.346 54.5267 103.188 54.3684C103.034 54.2146 102.957 54.023 102.957 53.7912V53.789ZM102.957 58.126C102.957 57.9098 103.034 57.7248 103.192 57.5666C103.35 57.4084 103.537 57.3303 103.757 57.3303C103.977 57.3303 104.164 57.4084 104.322 57.5666C104.48 57.7248 104.557 57.912 104.557 58.1327C104.557 58.3533 104.48 58.5472 104.322 58.7032C104.168 58.857 103.979 58.935 103.757 58.935C103.535 58.935 103.341 58.857 103.188 58.7032C103.034 58.5494 102.957 58.3578 102.957 58.126Z" fill="white"/>
<path d="M113.447 53.396V55.121C113.151 54.76 112.886 54.5126 112.653 54.3766C112.422 54.2385 112.153 54.1694 111.841 54.1694C111.354 54.1694 110.95 54.341 110.627 54.682C110.305 55.0252 110.145 55.4531 110.145 55.9679C110.145 56.4827 110.301 56.9262 110.612 57.265C110.925 57.6038 111.328 57.7731 111.815 57.7731C112.126 57.7731 112.399 57.7063 112.637 57.5703C112.869 57.4388 113.138 57.187 113.449 56.8081V58.522C112.924 58.7961 112.397 58.9321 111.872 58.9321C111.005 58.9321 110.281 58.6512 109.698 58.0896C109.115 57.5235 108.824 56.8237 108.824 55.9835C108.824 55.1433 109.12 54.4368 109.711 53.8618C110.303 53.2846 111.028 52.9971 111.886 52.9971C112.437 52.9971 112.96 53.1286 113.451 53.396H113.447Z" fill="white"/>
<path d="M115.008 49.0312H116.302V53.6223C116.762 53.2078 117.271 53.0005 117.827 53.0005C118.46 53.0005 118.965 53.2056 119.345 53.6179C119.668 53.9745 119.828 54.5473 119.828 55.3318V58.7751H118.534V55.4521C118.534 55.0019 118.454 54.6765 118.296 54.4737C118.136 54.2709 117.88 54.1706 117.527 54.1706C117.073 54.1706 116.755 54.311 116.571 54.5918C116.391 54.8771 116.299 55.3652 116.299 56.0561V58.7729H115.005V49.0312H115.008Z" fill="white"/>
<path d="M126.571 56.2688H122.556C122.591 56.7301 122.74 57.0979 123.005 57.3698C123.27 57.6394 123.61 57.7731 124.023 57.7731C124.346 57.7731 124.613 57.6951 124.824 57.5414C125.031 57.3876 125.266 57.1023 125.531 56.6878L126.625 57.2984C126.456 57.5859 126.278 57.8333 126.089 58.0406C125.9 58.2456 125.7 58.415 125.484 58.5487C125.268 58.6802 125.037 58.7783 124.788 58.8407C124.539 58.9031 124.268 58.9321 123.977 58.9321C123.141 58.9321 122.469 58.6624 121.962 58.1253C121.455 57.5837 121.202 56.8638 121.202 55.9679C121.202 55.072 121.446 54.361 121.938 53.8105C122.434 53.269 123.09 52.9971 123.906 52.9971C124.721 52.9971 125.382 53.2601 125.862 53.786C126.338 54.3098 126.576 55.0341 126.576 55.9612L126.569 56.2666L126.571 56.2688ZM125.244 55.2079C125.064 54.5148 124.628 54.1694 123.939 54.1694C123.781 54.1694 123.634 54.1939 123.496 54.2407C123.359 54.2897 123.232 54.3588 123.118 54.4479C123.005 54.5393 122.909 54.6463 122.827 54.7733C122.747 54.9004 122.685 55.0452 122.643 55.2057H125.244V55.2079Z" fill="white"/>
<path d="M127.987 53.1531H129.281V53.6724C129.53 53.4116 129.744 53.2333 129.919 53.1419C130.106 53.0461 130.344 52.9971 130.626 52.9971C131.26 52.9971 131.76 53.2734 132.127 53.8284C132.534 53.2757 133.083 52.9971 133.779 52.9971C135.042 52.9971 135.671 53.7637 135.671 55.2993V58.7716H134.371V55.6514C134.371 55.1121 134.306 54.7332 134.175 54.5103C134.042 54.283 133.819 54.1694 133.512 54.1694C133.157 54.1694 132.897 54.3031 132.732 54.5727C132.57 54.8424 132.487 55.2748 132.487 55.8698V58.7716H131.187V55.6693C131.187 54.6686 130.9 54.1694 130.324 54.1694C129.959 54.1694 129.695 54.3053 129.528 54.5794C129.361 54.8536 129.277 55.2837 129.277 55.8721V58.7738H127.983V53.1553L127.987 53.1531Z" fill="white"/>
<path d="M137.112 50.8172C137.112 50.5899 137.194 50.3937 137.359 50.2288C137.523 50.0639 137.721 49.9814 137.952 49.9814C138.184 49.9814 138.386 50.0639 138.551 50.2288C138.715 50.3893 138.797 50.5876 138.797 50.8239C138.797 51.0601 138.715 51.2585 138.551 51.4234C138.39 51.5883 138.193 51.6708 137.957 51.6708C137.721 51.6708 137.523 51.5883 137.359 51.4234C137.194 51.2585 137.112 51.0557 137.112 50.8172ZM138.604 53.1529V58.7714H137.31V53.1529H138.604Z" fill="white"/>
<path d="M143.5 54.1109L142.43 54.6814C142.262 54.3382 142.053 54.1688 141.804 54.1688C141.683 54.1688 141.583 54.2089 141.499 54.2869C141.414 54.3649 141.372 54.4675 141.372 54.59C141.372 54.804 141.621 55.0179 142.119 55.2297C142.806 55.5261 143.269 55.798 143.507 56.0476C143.745 56.2972 143.862 56.6337 143.862 57.055C143.862 57.5965 143.662 58.049 143.264 58.4145C142.877 58.7599 142.408 58.9337 141.861 58.9337C140.921 58.9337 140.256 58.4746 139.865 57.5542L140.97 57.0416C141.123 57.3113 141.241 57.4829 141.321 57.5542C141.479 57.7013 141.666 57.7726 141.886 57.7726C142.324 57.7726 142.542 57.572 142.542 57.1731C142.542 56.9413 142.373 56.7273 142.035 56.5268C141.904 56.4621 141.775 56.3975 141.643 56.3373C141.512 56.2749 141.381 56.2125 141.245 56.1479C140.87 55.9629 140.605 55.7779 140.452 55.5952C140.256 55.3612 140.158 55.0581 140.158 54.6903C140.158 54.2022 140.325 53.7988 140.658 53.4801C141.001 53.1614 141.414 53.001 141.901 53.001C142.619 53.001 143.151 53.3732 143.5 54.1131V54.1109Z" fill="white"/>
<path d="M146.359 54.3652V58.7713H145.065V54.3652H144.514V53.155H145.065V51.0957H146.359V53.155H147.366V54.3652H146.359Z" fill="white"/>
<path d="M148.247 53.1531H149.541V53.6545C149.779 53.4049 149.99 53.2333 150.175 53.1419C150.363 53.0461 150.586 52.9971 150.842 52.9971C151.184 52.9971 151.54 53.1085 151.911 53.3314L151.317 54.5193C151.073 54.3432 150.833 54.254 150.597 54.254C149.892 54.254 149.539 54.7889 149.539 55.8587V58.7716H148.245V53.1531H148.247Z" fill="white"/>
<path d="M154.939 57.7285L152.418 53.1553H153.918L155.633 56.3846L157.231 53.1553H158.692L154.228 61.8293H152.749L154.935 57.7285H154.939Z" fill="white"/>
<path d="M160.791 49.4814L161.943 49.9316L160.302 53.2301L159.428 52.8668L160.791 49.4814Z" fill="white"/>
<path d="M165.033 54.1109L163.964 54.6814C163.795 54.3382 163.586 54.1688 163.337 54.1688C163.217 54.1688 163.117 54.2089 163.032 54.2869C162.948 54.3649 162.905 54.4675 162.905 54.59C162.905 54.804 163.154 55.0179 163.652 55.2297C164.339 55.5261 164.802 55.798 165.04 56.0476C165.278 56.2972 165.396 56.6337 165.396 57.055C165.396 57.5965 165.195 58.049 164.797 58.4145C164.411 58.7599 163.941 58.9337 163.395 58.9337C162.454 58.9337 161.789 58.4746 161.398 57.5542L162.503 57.0416C162.656 57.3113 162.774 57.4829 162.854 57.5542C163.012 57.7013 163.199 57.7726 163.419 57.7726C163.857 57.7726 164.075 57.572 164.075 57.1731C164.075 56.9413 163.906 56.7273 163.568 56.5268C163.437 56.4621 163.308 56.3975 163.177 56.3373C163.045 56.2749 162.914 56.2125 162.779 56.1479C162.403 55.9629 162.138 55.7779 161.985 55.5952C161.789 55.3612 161.691 55.0581 161.691 54.6903C161.691 54.2022 161.858 53.7988 162.192 53.4801C162.534 53.1614 162.948 53.001 163.435 53.001C164.153 53.001 164.684 53.3732 165.033 54.1131V54.1109Z" fill="white"/>
<path d="M174.325 53.1534H175.625V58.7719H174.325V58.1835C173.791 58.6827 173.218 58.9323 172.604 58.9323C171.828 58.9323 171.188 58.6515 170.683 58.0899C170.18 57.5171 169.929 56.8017 169.929 55.9437C169.929 55.0856 170.18 54.3992 170.683 53.8376C171.185 53.2759 171.815 52.9951 172.571 52.9951C173.222 52.9951 173.807 53.2648 174.325 53.8019V53.1511V53.1534ZM171.252 55.9459C171.252 56.4852 171.397 56.9221 171.683 57.2608C171.979 57.604 172.35 57.7734 172.8 57.7734C173.28 57.7734 173.667 57.6085 173.962 57.2764C174.258 56.9332 174.405 56.5008 174.405 55.9726C174.405 55.4444 174.256 55.0121 173.962 54.6689C173.667 54.3346 173.284 54.1674 172.811 54.1674C172.366 54.1674 171.995 54.3368 171.695 54.6756C171.399 55.0188 171.252 55.44 171.252 55.9437V55.9459Z" fill="white"/>
<path d="M178.553 61.8301H177.259V53.156H178.553V53.7667C179.062 53.2563 179.642 53 180.292 53C181.063 53 181.697 53.2853 182.197 53.8536C182.704 54.4197 182.958 55.1329 182.958 55.9931C182.958 56.8534 182.706 57.5376 182.204 58.0992C181.706 58.6564 181.077 58.935 180.316 58.935C179.66 58.935 179.073 58.672 178.555 58.146V61.8323L178.553 61.8301ZM181.632 55.9976C181.632 55.4582 181.486 55.0214 181.194 54.6827C180.899 54.3394 180.527 54.1701 180.078 54.1701C179.602 54.1701 179.218 54.335 178.922 54.6671C178.626 54.9969 178.48 55.4315 178.48 55.9708C178.48 56.5102 178.626 56.9314 178.922 57.2746C179.213 57.6089 179.598 57.7761 180.074 57.7761C180.523 57.7761 180.892 57.6067 181.185 57.2679C181.486 56.9292 181.635 56.5057 181.635 55.9998L181.632 55.9976Z" fill="white"/>
<path d="M189.428 56.2688H185.412C185.448 56.7301 185.597 57.0979 185.862 57.3698C186.126 57.6394 186.466 57.7731 186.88 57.7731C187.202 57.7731 187.469 57.6951 187.68 57.5414C187.887 57.3876 188.123 57.1023 188.387 56.6878L189.481 57.2984C189.312 57.5859 189.134 57.8333 188.945 58.0406C188.756 58.2456 188.556 58.415 188.341 58.5487C188.125 58.6802 187.894 58.7783 187.645 58.8407C187.396 58.9031 187.124 58.9321 186.833 58.9321C185.997 58.9321 185.326 58.6624 184.819 58.1253C184.312 57.5837 184.058 56.8638 184.058 55.9679C184.058 55.072 184.303 54.361 184.794 53.8105C185.29 53.269 185.946 52.9971 186.762 52.9971C187.578 52.9971 188.238 53.2601 188.719 53.786C189.194 54.3098 189.432 55.0341 189.432 55.9612L189.426 56.2666L189.428 56.2688ZM188.098 55.2079C187.918 54.5148 187.482 54.1694 186.791 54.1694C186.633 54.1694 186.486 54.1939 186.348 54.2407C186.211 54.2897 186.084 54.3588 185.97 54.4479C185.857 54.5393 185.761 54.6463 185.679 54.7733C185.599 54.9004 185.537 55.0452 185.495 55.2057H188.096L188.098 55.2079Z" fill="white"/>
<path d="M192.356 55.7319L190.342 53.1533H191.885L193.134 54.7914L194.406 53.1533H195.994L193.921 55.7319L196.32 58.7718H194.777L193.132 56.6724L191.447 58.7718H189.864L192.356 55.7319Z" fill="white"/>
<path d="M61.131 36.0052H49.783L46.8304 42.4594H42.5215L55.6371 14.2197L68.2902 42.4594H63.9124L61.131 36.0052ZM59.4991 32.2364L55.5682 23.2013L51.4483 32.2364H59.4991Z" fill="white"/>
<path d="M92.4158 17.3091V22.0495C90.1035 20.1105 87.7112 19.1411 85.2388 19.1411C82.5152 19.1411 80.2207 20.1217 78.3553 22.0829C76.4788 24.033 75.5405 26.42 75.5405 29.2415C75.5405 32.063 76.4788 34.3808 78.3553 36.2975C80.2318 38.2142 82.533 39.1703 85.2566 39.1703C86.664 39.1703 87.8601 38.9407 88.8451 38.4816C89.3943 38.2521 89.9634 37.9423 90.5526 37.5523C91.1418 37.1622 91.7621 36.692 92.4158 36.1415V40.9844C90.1257 42.286 87.7223 42.9368 85.2054 42.9368C81.4168 42.9368 78.1841 41.6107 75.5071 38.9608C72.8413 36.2886 71.5073 33.0637 71.5073 29.2905C71.5073 25.9074 72.6235 22.8897 74.8557 20.2398C77.6016 16.9926 81.1567 15.3701 85.5167 15.3701C87.8979 15.3701 90.1969 16.0164 92.418 17.3046L92.4158 17.3091Z" fill="white"/>
<path d="M103.924 15.8896V31.8805C103.924 34.1627 104.295 35.8297 105.04 36.8839C106.15 38.4083 107.713 39.1705 109.727 39.1705C111.741 39.1705 113.32 38.4083 114.432 36.8839C115.177 35.8632 115.548 34.1961 115.548 31.8805V15.8896H119.548V32.9948C119.548 35.7941 118.678 38.1008 116.937 39.9127C114.981 41.9319 112.577 42.9415 109.727 42.9415C106.877 42.9415 104.48 41.9319 102.535 39.9127C100.794 38.1008 99.9243 35.7941 99.9243 32.9948V15.8896H103.924Z" fill="white"/>
<path d="M135.671 19.6584V42.4601H131.671V19.6584H125.577V15.8896H141.748V19.6584H135.671Z" fill="white"/>
<path d="M162.648 36.0052H151.3L148.347 42.4594H144.038L157.154 14.2197L169.807 42.4594H165.429L162.648 36.0052ZM161.018 32.2364L157.087 23.2013L152.967 32.2364H161.018Z" fill="white"/>
<path d="M190.448 36.0052H179.1L176.148 42.4594H171.839L184.954 14.2197L197.608 42.4594H193.23L190.448 36.0052ZM188.819 32.2364L184.888 23.2013L180.768 32.2364H188.819Z" fill="white"/>
<path d="M218.37 19.8299L215.126 21.7577C214.519 20.7013 213.941 20.0149 213.391 19.6917C212.82 19.324 212.082 19.1412 211.177 19.1412C210.068 19.1412 209.145 19.4577 208.413 20.0884C207.68 20.708 207.315 21.488 207.315 22.4308C207.315 23.7278 208.276 24.7731 210.199 25.5643L212.842 26.6497C214.995 27.5233 216.566 28.5864 217.563 29.8434C218.559 31.1003 219.057 32.6426 219.057 34.4679C219.057 36.9128 218.243 38.9342 216.62 40.5299C214.983 42.1368 212.951 42.9414 210.526 42.9414C208.224 42.9414 206.326 42.2549 204.827 40.8843C203.351 39.5136 202.428 37.5903 202.063 35.112L206.114 34.2183C206.297 35.7784 206.617 36.8571 207.075 37.4543C207.9 38.6021 209.1 39.1749 210.679 39.1749C211.926 39.1749 212.962 38.7559 213.787 37.9201C214.612 37.0844 215.023 36.0235 215.023 34.7376C215.023 34.2227 214.952 33.748 214.81 33.3179C214.668 32.8878 214.443 32.4933 214.141 32.1322C213.836 31.7712 213.445 31.4324 212.965 31.1182C212.484 30.8039 211.911 30.5008 211.248 30.2156L208.691 29.1502C205.063 27.6147 203.249 25.3682 203.249 22.4085C203.249 20.4138 204.009 18.7467 205.532 17.4051C207.055 16.0522 208.949 15.377 211.215 15.377C214.27 15.377 216.658 16.8635 218.374 19.8343L218.37 19.8299Z" fill="white"/>
<path d="M220.259 15.02V18.4812H219.652V15.02H218.727V14.4473H221.181V15.02H220.259Z" fill="white"/>
<path d="M221.582 18.4813L222.429 14.1465L223.81 17.28L225.239 14.1465L226 18.4813H225.377L224.988 16.0476L223.796 18.6663L222.64 16.0431L222.207 18.4791H221.58L221.582 18.4813Z" fill="white"/>
</svg>
