<svg width="176" height="48" viewBox="0 0 176 48" fill="none" xmlns="http://www.w3.org/2000/svg">
<path d="M17.6217 32.9701H15.1424L13.5783 29.1914L12.0765 32.9701H9.61621L13.5368 23.0995L17.6217 32.9701Z" fill="#F99D1C"/>
<path d="M22.4836 32.97H20.0042L13.5749 17.4297L7.4017 32.97H4.94141L13.5853 11.3343L22.4836 32.97Z" fill="#F99D1C"/>
<path d="M27.4629 32.97H24.9749L13.5732 6.05558L2.45857 32.97H0L13.5801 0L27.4629 32.97Z" fill="#F99D1C"/>
<path d="M18.3899 11.426H15.8483L13.5732 6.05558L11.3551 11.426H8.87402L13.5801 0L18.3899 11.426Z" fill="#B03B23"/>
<path d="M35.7608 42.6382L33.5046 38.7108H34.7054L36.2867 41.4738L37.8716 38.7108H39.0723L36.8075 42.6382V45.6245H35.7642V42.6382H35.7608Z" fill="#231F20"/>
<path d="M38.8457 43.4133C38.8457 42.7835 39.0706 42.2472 39.5222 41.806C39.9738 41.3648 40.5222 41.1433 41.1693 41.1433C41.8164 41.1433 42.3718 41.3665 42.8268 41.8112C43.2749 42.2558 43.4981 42.8026 43.4981 43.4497C43.4981 44.0967 43.2732 44.6504 42.8216 45.0933C42.3683 45.5328 41.8112 45.7508 41.152 45.7508C40.4928 45.7508 39.9513 45.5276 39.5084 45.0795C39.0672 44.6383 38.8457 44.0829 38.8457 43.4133ZM39.8752 43.4306C39.8752 43.8666 39.9911 44.2109 40.2246 44.4653C40.4634 44.7213 40.7783 44.8511 41.1693 44.8511C41.5603 44.8511 41.8787 44.7248 42.114 44.4705C42.3493 44.2161 42.4669 43.8787 42.4669 43.4548C42.4669 43.031 42.3493 42.6918 42.114 42.4375C41.8752 42.1814 41.5603 42.0517 41.1693 42.0517C40.7783 42.0517 40.4721 42.1797 40.2333 42.4375C39.9945 42.6936 39.8752 43.0258 39.8752 43.4324V43.4306Z" fill="#231F20"/>
<path d="M45.5709 41.2645V43.768C45.5709 44.4912 45.8564 44.8511 46.4256 44.8511C46.9948 44.8511 47.2803 44.4895 47.2803 43.768V41.2645H48.2873V43.7905C48.2873 44.14 48.244 44.441 48.1575 44.6954C48.0745 44.922 47.9291 45.1262 47.7232 45.3079C47.3824 45.6037 46.9499 45.7508 46.4256 45.7508C45.9014 45.7508 45.4723 45.6037 45.1315 45.3079C44.9221 45.1262 44.775 44.922 44.6885 44.6954C44.6055 44.493 44.564 44.1919 44.564 43.7905V41.2645H45.5709Z" fill="#231F20"/>
<path d="M55.6058 41.2644H56.618V45.6262H55.6058V45.1694C55.1906 45.557 54.7442 45.7508 54.2667 45.7508C53.6629 45.7508 53.1646 45.5328 52.7718 45.0968C52.3808 44.6521 52.1853 44.0967 52.1853 43.4306C52.1853 42.7645 52.3808 42.2316 52.7718 41.7956C53.1628 41.3596 53.6525 41.1416 54.2407 41.1416C54.7477 41.1416 55.2027 41.351 55.6058 41.7679V41.2627V41.2644ZM53.2148 43.4306C53.2148 43.8493 53.3272 44.1884 53.5504 44.4514C53.7805 44.7179 54.0695 44.8493 54.4189 44.8493C54.7927 44.8493 55.0937 44.7213 55.3238 44.4635C55.5539 44.1971 55.6681 43.8614 55.6681 43.4514C55.6681 43.0413 55.5539 42.7057 55.3238 42.4392C55.0937 42.1797 54.7961 42.0499 54.4276 42.0499C54.0816 42.0499 53.7926 42.1814 53.5591 42.4444C53.3289 42.7109 53.2148 43.0379 53.2148 43.4289V43.4306Z" fill="#231F20"/>
<path d="M57.888 41.2645H58.9001V41.6676C59.2531 41.3181 59.6493 41.1433 60.0905 41.1433C60.5974 41.1433 60.9936 41.3025 61.2774 41.6226C61.5213 41.8942 61.6441 42.3372 61.6441 42.9531V45.6262H60.632V43.1936C60.632 42.7645 60.5714 42.4669 60.4521 42.3043C60.3361 42.1382 60.1233 42.0534 59.8171 42.0534C59.4832 42.0534 59.2461 42.1641 59.1043 42.3839C58.9676 42.6019 58.8984 42.9808 58.8984 43.5241V45.6262H57.8862V41.2645H57.888Z" fill="#231F20"/>
<path d="M66.1322 38.0619H67.1444V45.6245H66.1322V45.1677C65.736 45.5553 65.2862 45.7491 64.7844 45.7491C64.1875 45.7491 63.6927 45.5311 63.2982 45.0951C62.9072 44.6504 62.7117 44.095 62.7117 43.4289C62.7117 42.7628 62.9072 42.2351 63.2982 41.7991C63.6858 41.3596 64.1737 41.1416 64.7619 41.1416C65.2723 41.1416 65.7291 41.351 66.1322 41.768V38.0602V38.0619ZM63.7411 43.4306C63.7411 43.8493 63.8536 44.1885 64.0768 44.4514C64.3069 44.7179 64.5958 44.8494 64.9453 44.8494C65.319 44.8494 65.6201 44.7213 65.8502 44.4636C66.0803 44.1971 66.1945 43.8615 66.1945 43.4514C66.1945 43.0414 66.0803 42.7057 65.8502 42.4393C65.6201 42.1797 65.3225 42.05 64.954 42.05C64.6079 42.05 64.319 42.1815 64.0854 42.4445C63.8553 42.7109 63.7411 43.0379 63.7411 43.4289V43.4306Z" fill="#231F20"/>
<path d="M72.2518 41.2645V43.768C72.2518 44.4912 72.5373 44.8511 73.1065 44.8511C73.6758 44.8511 73.9612 44.4895 73.9612 43.768V41.2645H74.9682V43.7905C74.9682 44.14 74.9249 44.441 74.8384 44.6954C74.7554 44.922 74.61 45.1262 74.4042 45.3079C74.0633 45.6037 73.6308 45.7508 73.1065 45.7508C72.5823 45.7508 72.1532 45.6037 71.8124 45.3079C71.603 45.1262 71.456 44.922 71.3694 44.6954C71.2864 44.493 71.2449 44.1919 71.2449 43.7905V41.2645H72.2518Z" fill="#231F20"/>
<path d="M78.7761 42.0067L77.9439 42.4496C77.8124 42.1832 77.6497 42.0517 77.456 42.0517C77.3625 42.0517 77.2847 42.0828 77.2189 42.1434C77.1532 42.2039 77.1203 42.2835 77.1203 42.3787C77.1203 42.5448 77.3141 42.7109 77.7017 42.8752C78.2363 43.1054 78.5961 43.3164 78.7813 43.5102C78.9664 43.704 79.0581 43.9653 79.0581 44.2923C79.0581 44.7127 78.9024 45.0639 78.5927 45.3477C78.2916 45.6158 77.9266 45.7508 77.501 45.7508C76.7691 45.7508 76.2518 45.3944 75.9473 44.6798L76.8072 44.2819C76.9265 44.4912 77.0182 44.6244 77.0805 44.6798C77.2034 44.794 77.3487 44.8494 77.52 44.8494C77.8608 44.8494 78.0304 44.6937 78.0304 44.384C78.0304 44.204 77.8989 44.0379 77.6359 43.8822C77.5338 43.832 77.4335 43.7819 77.3314 43.7351C77.2293 43.6867 77.1272 43.6382 77.0217 43.5881C76.7293 43.4445 76.5234 43.3009 76.404 43.159C76.2518 42.9773 76.1756 42.742 76.1756 42.4565C76.1756 42.0776 76.3054 41.7645 76.5649 41.5171C76.8314 41.2697 77.1532 41.1451 77.5321 41.1451C78.0909 41.1451 78.5045 41.434 78.7761 42.0084V42.0067Z" fill="#231F20"/>
<path d="M80.1189 41.7558C80.1189 41.5915 80.1795 41.4479 80.3023 41.3267C80.4251 41.2039 80.5705 41.1433 80.7418 41.1433C80.913 41.1433 81.0584 41.2039 81.1812 41.3267C81.3041 41.4496 81.3646 41.5949 81.3646 41.7662C81.3646 41.9375 81.3041 42.0863 81.1812 42.2091C81.0618 42.3285 80.9148 42.3891 80.7418 42.3891C80.5687 42.3891 80.4217 42.3285 80.2988 42.2057C80.1794 42.0863 80.1189 41.9375 80.1189 41.7576V41.7558ZM80.1189 45.1227C80.1189 44.9549 80.1795 44.8113 80.3023 44.6885C80.4251 44.5656 80.5705 44.5051 80.7418 44.5051C80.913 44.5051 81.0584 44.5656 81.1812 44.6885C81.3041 44.8113 81.3646 44.9566 81.3646 45.1279C81.3646 45.2992 81.3041 45.4497 81.1812 45.5708C81.0618 45.6902 80.9148 45.7508 80.7418 45.7508C80.5687 45.7508 80.4182 45.6902 80.2988 45.5708C80.1794 45.4515 80.1189 45.3027 80.1189 45.1227Z" fill="#231F20"/>
<path d="M88.2816 41.4513V42.7904C88.0515 42.5102 87.8456 42.3181 87.6639 42.2126C87.484 42.1053 87.2746 42.0517 87.0324 42.0517C86.6535 42.0517 86.3386 42.1849 86.0877 42.4496C85.8369 42.7161 85.7123 43.0482 85.7123 43.4479C85.7123 43.8476 85.8334 44.1919 86.0756 44.4549C86.3196 44.7179 86.6327 44.8493 87.0116 44.8493C87.2539 44.8493 87.4667 44.7974 87.6518 44.6919C87.8317 44.5898 88.0411 44.3943 88.2833 44.1002V45.4307C87.875 45.6435 87.4649 45.749 87.0566 45.749C86.3819 45.749 85.8178 45.531 85.3645 45.095C84.9112 44.6556 84.6846 44.1123 84.6846 43.46C84.6846 42.8078 84.9147 42.2593 85.3749 41.8129C85.8351 41.3648 86.3992 41.1416 87.067 41.1416C87.4961 41.1416 87.9027 41.2437 88.285 41.4513H88.2816Z" fill="#231F20"/>
<path d="M89.4964 38.0619H90.5033V41.6261C90.8615 41.3043 91.2577 41.1433 91.6902 41.1433C92.1833 41.1433 92.576 41.3025 92.8719 41.6226C93.1228 41.8994 93.2474 42.3441 93.2474 42.9531V45.6262H92.2404V43.0465C92.2404 42.697 92.1781 42.4444 92.0553 42.287C91.9307 42.1295 91.7317 42.0517 91.4566 42.0517C91.1037 42.0517 90.8563 42.1607 90.7127 42.3787C90.5725 42.6001 90.5016 42.9791 90.5016 43.5154V45.6245H89.4946V38.0619H89.4964Z" fill="#231F20"/>
<path d="M98.4948 43.6815H95.3701C95.3978 44.0396 95.5137 44.3251 95.7196 44.5362C95.9255 44.7455 96.1902 44.8493 96.512 44.8493C96.7629 44.8493 96.9705 44.7888 97.1348 44.6694C97.2957 44.55 97.4791 44.3286 97.685 44.0068L98.5363 44.4808C98.4048 44.704 98.2664 44.8961 98.1193 45.057C97.9722 45.2161 97.8165 45.3476 97.6487 45.4514C97.4809 45.5535 97.3009 45.6297 97.1072 45.6781C96.9134 45.7265 96.7023 45.749 96.4757 45.749C95.8251 45.749 95.3026 45.5397 94.9081 45.1227C94.5136 44.7023 94.3164 44.1434 94.3164 43.4479C94.3164 42.7524 94.5067 42.2005 94.8891 41.7731C95.2749 41.3527 95.7853 41.1416 96.4203 41.1416C97.0553 41.1416 97.5691 41.3458 97.9428 41.7541C98.3131 42.1607 98.4982 42.723 98.4982 43.4427L98.493 43.6798L98.4948 43.6815ZM97.4618 42.8579C97.3217 42.3198 96.9826 42.0517 96.4462 42.0517C96.3234 42.0517 96.2092 42.0707 96.1019 42.107C95.9947 42.1451 95.896 42.1987 95.8078 42.2679C95.7196 42.3389 95.6452 42.4219 95.5812 42.5205C95.5189 42.6192 95.4704 42.7316 95.4376 42.8562H97.4618V42.8579Z" fill="#231F20"/>
<path d="M99.597 41.2645H100.604V41.6676C100.798 41.4652 100.964 41.3267 101.1 41.2558C101.246 41.1814 101.431 41.1433 101.651 41.1433C102.144 41.1433 102.533 41.3579 102.819 41.7887C103.135 41.3596 103.563 41.1433 104.104 41.1433C105.087 41.1433 105.576 41.7385 105.576 42.9306V45.6262H104.564V43.204C104.564 42.7853 104.514 42.4911 104.412 42.3181C104.308 42.1416 104.135 42.0534 103.896 42.0534C103.62 42.0534 103.417 42.1572 103.289 42.3666C103.163 42.5759 103.099 42.9116 103.099 43.3735V45.6262H102.087V43.2178C102.087 42.441 101.863 42.0534 101.415 42.0534C101.132 42.0534 100.926 42.1589 100.796 42.3718C100.666 42.5846 100.6 42.9185 100.6 43.3753V45.6279H99.5935V41.2662L99.597 41.2645Z" fill="#231F20"/>
<path d="M106.698 39.4495C106.698 39.2731 106.762 39.1208 106.89 38.9928C107.018 38.8647 107.172 38.8007 107.352 38.8007C107.531 38.8007 107.689 38.8647 107.817 38.9928C107.945 39.1173 108.009 39.2713 108.009 39.4547C108.009 39.6381 107.945 39.7921 107.817 39.9201C107.692 40.0482 107.538 40.1122 107.355 40.1122C107.172 40.1122 107.018 40.0482 106.89 39.9201C106.762 39.7921 106.698 39.6347 106.698 39.4495ZM107.858 41.2645V45.6262H106.851V41.2645H107.858Z" fill="#231F20"/>
<path d="M111.668 42.0067L110.836 42.4496C110.705 42.1832 110.542 42.0517 110.348 42.0517C110.255 42.0517 110.177 42.0828 110.111 42.1434C110.046 42.2039 110.013 42.2835 110.013 42.3787C110.013 42.5448 110.206 42.7109 110.594 42.8752C111.129 43.1054 111.488 43.3164 111.674 43.5102C111.859 43.704 111.95 43.9653 111.95 44.2923C111.95 44.7127 111.795 45.0639 111.485 45.3477C111.184 45.6158 110.819 45.7508 110.393 45.7508C109.661 45.7508 109.144 45.3944 108.84 44.6798L109.699 44.2819C109.819 44.4912 109.911 44.6244 109.973 44.6798C110.096 44.794 110.241 44.8494 110.412 44.8494C110.753 44.8494 110.923 44.6937 110.923 44.384C110.923 44.204 110.791 44.0379 110.528 43.8822C110.426 43.832 110.326 43.7819 110.224 43.7351C110.122 43.6867 110.02 43.6382 109.914 43.5881C109.622 43.4445 109.416 43.3009 109.296 43.159C109.144 42.9773 109.068 42.742 109.068 42.4565C109.068 42.0776 109.198 41.7645 109.457 41.5171C109.724 41.2697 110.046 41.1451 110.424 41.1451C110.983 41.1451 111.397 41.434 111.668 42.0084V42.0067Z" fill="#231F20"/>
<path d="M113.893 42.204V45.6245H112.886V42.204H112.457V41.2645H112.886V39.6658H113.893V41.2645H114.677V42.204H113.893Z" fill="#231F20"/>
<path d="M115.362 41.2645H116.369V41.6537C116.554 41.46 116.719 41.3267 116.862 41.2558C117.009 41.1814 117.182 41.1433 117.381 41.1433C117.648 41.1433 117.925 41.2298 118.214 41.4029L117.752 42.325C117.561 42.1884 117.375 42.1192 117.191 42.1192C116.643 42.1192 116.368 42.5344 116.368 43.3649V45.6262H115.361V41.2645H115.362Z" fill="#231F20"/>
<path d="M120.57 44.8148L118.608 41.2645H119.776L121.11 43.7715L122.354 41.2645H123.49L120.016 47.9983H118.866L120.566 44.8148H120.57Z" fill="#231F20"/>
<path d="M125.124 38.4114L126.02 38.7609L124.743 41.3215L124.063 41.0395L125.124 38.4114Z" fill="#231F20"/>
<path d="M128.425 42.0067L127.593 42.4496C127.461 42.1832 127.299 42.0517 127.105 42.0517C127.011 42.0517 126.934 42.0828 126.868 42.1434C126.802 42.2039 126.769 42.2835 126.769 42.3787C126.769 42.5448 126.963 42.7109 127.351 42.8752C127.885 43.1054 128.245 43.3164 128.43 43.5102C128.615 43.704 128.707 43.9653 128.707 44.2923C128.707 44.7127 128.551 45.0639 128.242 45.3477C127.941 45.6158 127.575 45.7508 127.15 45.7508C126.418 45.7508 125.901 45.3944 125.596 44.6798L126.456 44.2819C126.575 44.4912 126.667 44.6244 126.729 44.6798C126.852 44.794 126.998 44.8494 127.169 44.8494C127.51 44.8494 127.679 44.6937 127.679 44.384C127.679 44.204 127.548 44.0379 127.285 43.8822C127.183 43.832 127.082 43.7819 126.98 43.7351C126.878 43.6867 126.776 43.6382 126.671 43.5881C126.378 43.4445 126.172 43.3009 126.053 43.159C125.901 42.9773 125.825 42.742 125.825 42.4565C125.825 42.0776 125.954 41.7645 126.214 41.5171C126.48 41.2697 126.802 41.1451 127.181 41.1451C127.74 41.1451 128.153 41.434 128.425 42.0084V42.0067Z" fill="#231F20"/>
<path d="M135.655 41.2644H136.668V45.6262H135.655V45.1694C135.24 45.557 134.794 45.7508 134.316 45.7508C133.712 45.7508 133.214 45.5328 132.821 45.0968C132.43 44.6521 132.235 44.0967 132.235 43.4306C132.235 42.7645 132.43 42.2316 132.821 41.7956C133.212 41.3596 133.702 41.1416 134.29 41.1416C134.797 41.1416 135.252 41.351 135.655 41.7679V41.2627V41.2644ZM133.264 43.4306C133.264 43.8493 133.377 44.1884 133.6 44.4514C133.83 44.7179 134.119 44.8493 134.469 44.8493C134.842 44.8493 135.143 44.7213 135.373 44.4635C135.603 44.1971 135.718 43.8614 135.718 43.4514C135.718 43.0413 135.602 42.7057 135.373 42.4392C135.143 42.1797 134.846 42.0499 134.477 42.0499C134.131 42.0499 133.842 42.1814 133.609 42.4444C133.379 42.7109 133.264 43.0379 133.264 43.4289V43.4306Z" fill="#231F20"/>
<path d="M138.946 47.9983H137.939V41.2645H138.946V41.7385C139.342 41.3423 139.794 41.1433 140.299 41.1433C140.9 41.1433 141.393 41.3648 141.782 41.806C142.176 42.2455 142.374 42.7991 142.374 43.467C142.374 44.1348 142.178 44.666 141.787 45.102C141.4 45.5345 140.91 45.7508 140.318 45.7508C139.808 45.7508 139.351 45.5466 138.948 45.1383V48L138.946 47.9983ZM141.342 43.4721C141.342 43.0534 141.228 42.7143 141.002 42.4514C140.771 42.1849 140.483 42.0534 140.133 42.0534C139.763 42.0534 139.463 42.1814 139.233 42.4392C139.003 42.6953 138.889 43.0327 138.889 43.4514C138.889 43.8701 139.003 44.1971 139.233 44.4635C139.46 44.7231 139.759 44.8528 140.13 44.8528C140.479 44.8528 140.766 44.7213 140.995 44.4583C141.228 44.1954 141.344 43.8666 141.344 43.4739L141.342 43.4721Z" fill="#231F20"/>
<path d="M147.408 43.6815H144.284C144.311 44.0396 144.427 44.3251 144.633 44.5362C144.839 44.7455 145.104 44.8493 145.426 44.8493C145.676 44.8493 145.884 44.7888 146.048 44.6694C146.209 44.55 146.393 44.3286 146.599 44.0068L147.45 44.4808C147.318 44.704 147.18 44.8961 147.033 45.057C146.886 45.2161 146.73 45.3476 146.562 45.4514C146.394 45.5535 146.215 45.6297 146.021 45.6781C145.827 45.7265 145.616 45.749 145.389 45.749C144.739 45.749 144.216 45.5397 143.822 45.1227C143.427 44.7023 143.23 44.1434 143.23 43.4479C143.23 42.7524 143.42 42.2005 143.803 41.7731C144.188 41.3527 144.699 41.1416 145.334 41.1416C145.969 41.1416 146.483 41.3458 146.856 41.7541C147.227 42.1607 147.412 42.723 147.412 43.4427L147.407 43.6798L147.408 43.6815ZM146.374 42.8579C146.234 42.3198 145.894 42.0517 145.356 42.0517C145.234 42.0517 145.119 42.0707 145.012 42.107C144.905 42.1451 144.806 42.1987 144.718 42.2679C144.63 42.3389 144.555 42.4219 144.491 42.5205C144.429 42.6192 144.381 42.7316 144.348 42.8562H146.372L146.374 42.8579Z" fill="#231F20"/>
<path d="M149.687 43.2645L148.12 41.2627H149.32L150.293 42.5344L151.282 41.2627H152.518L150.905 43.2645L152.772 45.6245H151.571L150.291 43.9947L148.979 45.6245H147.748L149.687 43.2645Z" fill="#231F20"/>
<path d="M47.5708 27.9509H38.7401L36.4424 32.9614H33.0894L43.2956 11.0385L53.142 32.9614H49.7353L47.5708 27.9509ZM46.3009 25.0251L43.242 18.0111L40.036 25.0251H46.3009Z" fill="#B03B23"/>
<path d="M71.916 13.4365V17.1165C70.1166 15.6113 68.255 14.8587 66.331 14.8587C64.2116 14.8587 62.426 15.6199 60.9744 17.1425C59.5142 18.6564 58.784 20.5094 58.784 22.6998C58.784 24.8902 59.5142 26.6895 60.9744 28.1775C62.4347 29.6654 64.2254 30.4077 66.3449 30.4077C67.4401 30.4077 68.3709 30.2295 69.1373 29.873C69.5647 29.6948 70.0076 29.4543 70.4661 29.1516C70.9246 28.8488 71.4073 28.4837 71.916 28.0564V31.816C70.1339 32.8264 68.2636 33.3316 66.3051 33.3316C63.3569 33.3316 60.8412 32.3022 58.7581 30.245C56.6836 28.1706 55.6455 25.667 55.6455 22.7378C55.6455 20.1114 56.5141 17.7688 58.2511 15.7116C60.3879 13.1908 63.1544 11.9312 66.5473 11.9312C68.4003 11.9312 70.1893 12.433 71.9177 13.433L71.916 13.4365Z" fill="#B03B23"/>
<path d="M80.8714 12.3344V24.7483C80.8714 26.52 81.1603 27.8142 81.7399 28.6325C82.6033 29.816 83.8196 30.4077 85.3871 30.4077C86.9546 30.4077 88.183 29.816 89.0481 28.6325C89.6277 27.8401 89.9167 26.546 89.9167 24.7483V12.3344H93.0292V25.6134C93.0292 27.7865 92.3527 29.5772 90.998 30.9838C89.4755 32.5514 87.6052 33.3351 85.3871 33.3351C83.169 33.3351 81.3039 32.5514 79.79 30.9838C78.4353 29.5772 77.7588 27.7865 77.7588 25.6134V12.3344H80.8714Z" fill="#B03B23"/>
<path d="M105.576 15.2601V32.9614H102.464V15.2601H97.7214V12.3344H110.305V15.2601H105.576Z" fill="#B03B23"/>
<path d="M126.568 27.9509H117.738L115.44 32.9614H112.087L122.293 11.0385L132.14 32.9614H128.733L126.568 27.9509ZM125.3 25.0251L122.241 18.0111L119.035 25.0251H125.3Z" fill="#B03B23"/>
<path d="M148.202 27.9509H139.372L137.074 32.9614H133.721L143.927 11.0385L153.774 32.9614H150.367L148.202 27.9509ZM146.934 25.0251L143.875 18.0111L140.669 25.0251H146.934Z" fill="#B03B23"/>
<path d="M169.93 15.3933L167.406 16.8899C166.933 16.0698 166.484 15.5369 166.056 15.286C165.612 15.0005 165.037 14.8587 164.333 14.8587C163.47 14.8587 162.752 15.1043 162.182 15.594C161.611 16.075 161.328 16.6805 161.328 17.4124C161.328 18.4193 162.075 19.2308 163.572 19.845L165.629 20.6876C167.304 21.3658 168.527 22.1911 169.302 23.1669C170.077 24.1427 170.465 25.34 170.465 26.757C170.465 28.655 169.831 30.2243 168.568 31.4631C167.295 32.7105 165.714 33.3351 163.826 33.3351C162.035 33.3351 160.558 32.8022 159.392 31.7382C158.243 30.6741 157.525 29.181 157.241 27.257L160.393 26.5632C160.535 27.7743 160.784 28.6117 161.141 29.0754C161.783 29.9665 162.717 30.4111 163.945 30.4111C164.916 30.4111 165.722 30.0858 166.364 29.437C167.006 28.7882 167.326 27.9647 167.326 26.9664C167.326 26.5667 167.271 26.1982 167.16 25.8642C167.049 25.5303 166.875 25.2241 166.639 24.9438C166.402 24.6635 166.098 24.4005 165.724 24.1566C165.35 23.9126 164.904 23.6773 164.388 23.4558L162.399 22.6288C159.575 21.4367 158.163 19.6927 158.163 17.3951C158.163 15.8466 158.755 14.5524 159.94 13.5109C161.125 12.4606 162.599 11.9364 164.362 11.9364C166.74 11.9364 168.598 13.0904 169.933 15.3967L169.93 15.3933Z" fill="#B03B23"/>
<path d="M171.401 11.6613V14.3482H170.928V11.6613H170.208V11.2166H172.119V11.6613H171.401Z" fill="#231F20"/>
<path d="M172.43 14.3466L173.089 10.9814L174.164 13.414L175.276 10.9814L175.868 14.3466H175.383L175.081 12.4572L174.153 14.4902L173.253 12.4538L172.916 14.3448H172.428L172.43 14.3466Z" fill="#231F20"/>
</svg>
