<svg width="24" height="24" viewBox="0 0 24 24" fill="none" xmlns="http://www.w3.org/2000/svg">
<path d="M20.348 8.41301C20.348 6.96493 19.9388 6.06616 19.3508 5.52016C18.7518 4.96393 17.8364 4.65203 16.587 4.65203H7.41301C6.16355 4.65203 5.24825 4.96393 4.64917 5.52016C4.06117 6.06616 3.65203 6.96493 3.65203 8.41301V14.8348C3.65203 16.2829 4.06117 17.1816 4.64917 17.7276C5.24825 18.2839 6.16355 18.5958 7.41301 18.5958H16.587C17.8364 18.5958 18.7518 18.2839 19.3508 17.7276C19.9388 17.1816 20.348 16.2829 20.348 14.8348V8.41301ZM22 14.8348C22 16.5976 21.4917 17.9923 20.4743 18.9371C19.4679 19.8716 18.0897 20.2478 16.587 20.2478H7.41301C5.91034 20.2478 4.53208 19.8716 3.52571 18.9371C2.50833 17.9923 2 16.5976 2 14.8348V8.41301C2 6.65025 2.50834 5.25547 3.52571 4.3107C4.53208 3.37621 5.91034 3 7.41301 3H16.587C18.0897 3 19.4679 3.37621 20.4743 4.3107C21.4917 5.25547 22 6.65025 22 8.41301V14.8348Z" fill="#8C8C8C"/>
<path d="M16.14 8.17726C16.4917 7.95019 16.9652 8.0223 17.2321 8.35644C17.4989 8.69051 17.4648 9.16823 17.1658 9.46108L17.1022 9.51663L14.2309 11.8101L14.23 11.811C12.9841 12.8029 11.0071 12.8028 9.76122 11.811L9.75943 11.8092L6.89704 9.51573L6.83343 9.46018C6.53487 9.16688 6.50163 8.6892 6.76893 8.35554C7.03632 8.02183 7.50965 7.95057 7.86102 8.17816L7.92911 8.22743L10.7897 10.5191L10.916 10.6096C11.5725 11.0299 12.5979 10.9997 13.2015 10.5191L16.0719 8.22653L16.14 8.17726Z" fill="#8C8C8C"/>
</svg>
