<svg width="24" height="24" viewBox="0 0 24 24" fill="none" xmlns="http://www.w3.org/2000/svg">
<path d="M16.5862 2H7.41382C4.42859 2 2 4.42859 2 7.41382V16.5863C2 19.5714 4.42859 22 7.41382 22H16.5863C19.5714 22 22 19.5714 22 16.5863V7.41382C22 4.42859 19.5714 2 16.5862 2ZM20.8275 16.5863C20.8275 18.9249 18.9249 20.8275 16.5862 20.8275H7.41382C5.0751 20.8275 3.17249 18.9249 3.17249 16.5863V7.41382C3.17249 5.0751 5.0751 3.17249 7.41382 3.17249H16.5863C18.9249 3.17249 20.8275 5.0751 20.8275 7.41382V16.5863Z" fill="#BCB2B2"/>
<path d="M11.9998 6.53125C8.98441 6.53125 6.53125 8.98441 6.53125 11.9998C6.53125 15.0153 8.98441 17.4684 11.9998 17.4684C15.0153 17.4684 17.4684 15.0153 17.4684 11.9998C17.4684 8.98441 15.0153 6.53125 11.9998 6.53125ZM11.9998 16.296C9.63107 16.296 7.70374 14.3688 7.70374 11.9998C7.70374 9.63107 9.63107 7.70374 11.9998 7.70374C14.3688 7.70374 16.296 9.63107 16.296 11.9998C16.296 14.3688 14.3688 16.296 11.9998 16.296Z" fill="#BCB2B2"/>
<path d="M17.5995 4.58887C16.7084 4.58887 15.9836 5.31381 15.9836 6.20477C15.9836 7.09589 16.7084 7.82083 17.5995 7.82083C18.4907 7.82083 19.2156 7.09589 19.2156 6.20477C19.2156 5.31366 18.4907 4.58887 17.5995 4.58887ZM17.5995 6.64819C17.3551 6.64819 17.1561 6.44922 17.1561 6.20477C17.1561 5.96017 17.3551 5.76135 17.5995 5.76135C17.8441 5.76135 18.0431 5.96017 18.0431 6.20477C18.0431 6.44922 17.8441 6.64819 17.5995 6.64819Z" fill="#BCB2B2"/>
</svg>
