<svg width="24" height="24" viewBox="0 0 24 24" fill="none" xmlns="http://www.w3.org/2000/svg">
<path d="M6.35148 8.27637H2.58593C2.2623 8.27637 2 8.53882 2 8.8623V21.4144C2 21.7381 2.2623 22.0004 2.58593 22.0004H6.35148C6.67512 22.0004 6.93741 21.7381 6.93741 21.4144V8.8623C6.93741 8.53882 6.67512 8.27637 6.35148 8.27637ZM5.76554 20.8285H3.17187V9.44824H5.76554V20.8285Z" fill="#BCB2B2"/>
<path d="M4.46886 2C3.10748 2 2 3.10748 2 4.46855C2 5.82994 3.10748 6.93726 4.46886 6.93726C5.83009 6.93726 6.93741 5.82978 6.93741 4.46855C6.93741 3.10748 5.83009 2 4.46886 2ZM4.46886 5.76539C3.75368 5.76539 3.17187 5.18373 3.17187 4.46855C3.17187 3.75353 3.75368 3.17187 4.46886 3.17187C5.18388 3.17187 5.76554 3.75353 5.76554 4.46855C5.76554 5.18373 5.18388 5.76539 4.46886 5.76539Z" fill="#BCB2B2"/>
<path d="M15.7662 8.19336C14.8755 8.19336 13.9977 8.40805 13.2116 8.80966C13.1849 8.51074 12.9338 8.27621 12.6279 8.27621H8.86206C8.53857 8.27621 8.27612 8.53866 8.27612 8.86215V21.4143C8.27612 21.7379 8.53857 22.0002 8.86206 22.0002H12.6279C12.9515 22.0002 13.2138 21.7379 13.2138 21.4143V14.5106C13.2138 13.6226 13.9365 12.9001 14.8246 12.9001C15.7126 12.9001 16.435 13.6226 16.435 14.5106V21.4143C16.435 21.7379 16.6974 22.0002 17.0209 22.0002H20.7866C21.1102 22.0002 21.3725 21.7379 21.3725 21.4143V13.7997C21.3725 10.7083 18.8576 8.19336 15.7662 8.19336ZM20.2007 20.8283H17.607V14.5106C17.607 12.9764 16.3588 11.7282 14.8247 11.7282C13.2903 11.7282 12.042 12.9764 12.042 14.5106V20.8283H9.44814V9.44808H12.042V9.88097C12.042 10.1063 12.1712 10.3117 12.3745 10.4092C12.5776 10.5067 12.8186 10.479 12.9946 10.3381C13.788 9.70168 14.7466 9.36523 15.7662 9.36523C18.2114 9.36523 20.2007 11.3545 20.2007 13.7997V20.8283Z" fill="#BCB2B2"/>
</svg>
