<svg width="20" height="20" viewBox="0 0 20 20" fill="none" xmlns="http://www.w3.org/2000/svg">
<path d="M10.5813 1.68732C9.39075 1.60402 8.19622 1.77741 7.07852 2.19577C5.96082 2.61413 4.94603 3.2677 4.1028 4.11224C3.25958 4.95678 2.6076 5.9726 2.19098 7.09095C1.77436 8.2093 1.60283 9.40409 1.68799 10.5945C1.99422 15.0061 5.89124 18.3337 10.7528 18.3337H14.8616C15.7821 18.3326 16.6646 17.9664 17.3155 17.3155C17.9664 16.6646 18.3325 15.7821 18.3336 14.8616V10.2369C18.3595 8.09631 17.5747 6.02521 16.1368 4.43937C14.6988 2.85354 12.7141 1.87039 10.5813 1.68732ZM14.6533 8.41196L9.93617 13.0694C9.67587 13.3287 9.32342 13.4742 8.95601 13.4742C8.58859 13.4742 8.23615 13.3287 7.97585 13.0694L5.34821 10.4973C5.21653 10.3683 5.14146 10.1924 5.1395 10.0081C5.13755 9.82386 5.20888 9.64636 5.3378 9.51468C5.46672 9.383 5.64266 9.30793 5.82693 9.30597C6.0112 9.30402 6.1887 9.37535 6.32038 9.50426L8.95427 12.0784L13.6804 7.4259C13.8137 7.30863 13.9868 7.24686 14.1642 7.25328C14.3416 7.2597 14.5098 7.33381 14.6343 7.4604C14.7588 7.58699 14.83 7.75644 14.8334 7.93393C14.8368 8.11142 14.7721 8.28347 14.6526 8.41474L14.6533 8.41196Z" fill="#B03B23"/>
</svg>
